<svg width="24" height="24" viewBox="0 0 24 24" fill="none" xmlns="http://www.w3.org/2000/svg">
<g clip-path="url(#clip0_1_129)">
<path d="M24 6C24 4.4087 23.3679 2.88258 22.2426 1.75736C21.1174 0.632141 19.5913 0 18 0H6C4.4087 0 2.88258 0.632141 1.75736 1.75736C0.632141 2.88258 0 4.4087 0 6L0 18C0 19.5913 0.632141 21.1174 1.75736 22.2426C2.88258 23.3679 4.4087 24 6 24H18C19.5913 24 21.1174 23.3679 22.2426 22.2426C23.3679 21.1174 24 19.5913 24 18V6ZM18.3686 6.70629C18.5013 6.81074 18.612 6.94038 18.6945 7.08775C18.7769 7.23512 18.8294 7.39732 18.849 7.56505C18.8686 7.73278 18.8549 7.90272 18.8086 8.06513C18.7624 8.22754 18.6845 8.37921 18.5794 8.51143L11.8389 17.028C11.6753 17.2779 11.4613 17.4908 11.2106 17.6531C10.9598 17.8153 10.6779 17.9233 10.383 17.9702C10.088 18.017 9.78649 18.0016 9.49783 17.9249C9.20918 17.8483 8.93975 17.7121 8.70686 17.5251L5.64343 15.1611C5.37336 14.9529 5.19708 14.6459 5.15336 14.3077C5.10963 13.9695 5.20205 13.6278 5.41029 13.3577C5.61852 13.0876 5.92551 12.9114 6.26371 12.8676C6.60192 12.8239 6.94365 12.9163 7.21371 13.1246L9.63086 14.9914C9.72078 15.0596 9.83388 15.0897 9.94578 15.0753C10.0577 15.0608 10.1594 15.003 10.2291 14.9143L16.572 6.91371C16.7833 6.64876 17.0908 6.47821 17.4275 6.43934C17.7641 6.40048 18.1025 6.49645 18.3686 6.70629Z" fill="#29ABE2"/>
<path d="M18.6945 7.08775C18.6121 6.94038 18.5013 6.81074 18.3687 6.70629C18.1026 6.49645 17.7642 6.40047 17.4276 6.43934C17.0909 6.47821 16.7834 6.64876 16.5721 6.91371L10.2292 14.9143C10.1595 15.003 10.0578 15.0608 9.94587 15.0753C9.83396 15.0897 9.72087 15.0596 9.63094 14.9914L7.2138 13.1246C6.94373 12.9163 6.60201 12.8239 6.2638 12.8676C5.92559 12.9114 5.6186 13.0876 5.41037 13.3577C5.20214 13.6278 5.10972 13.9695 5.15344 14.3077C5.19716 14.6459 5.37345 14.9529 5.64351 15.1611L8.70694 17.5251C8.93983 17.7121 9.20926 17.8483 9.49792 17.9249C9.78657 18.0016 10.0881 18.017 10.383 17.9702C10.678 17.9233 10.9599 17.8153 11.2106 17.6531C11.4614 17.4908 11.6754 17.2779 11.8389 17.028L18.5795 8.51143C18.6846 8.3792 18.7624 8.22754 18.8087 8.06513C18.855 7.90272 18.8687 7.73278 18.8491 7.56505C18.8295 7.39732 18.777 7.23512 18.6945 7.08775Z" fill="white"/>
</g>
<defs>
<clipPath id="clip0_1_129">
<rect width="24" height="24" fill="white"/>
</clipPath>
</defs>
</svg>
